<svg id="city" data-name="圖層 1" xmlns="http://www.w3.org/2000/svg" viewBox="0 0 595.35 201.16">
    <defs>
        <style>
            .cls-1 {
                fill: #040000;
            }

            .cls-2 {
                fill: #0e0b1b;
            }

            .cls-3 {
                fill: #09061f;
            }

            .cls-4 {
                fill: #7c8bc5;
            }

            .cls-5 {
                fill: #05030c;
            }
        </style>
    </defs>
    <title>city</title>
    <polygon class="cls-1"
        points="5.82 54.26 5.82 45.27 8.73 45.27 8.73 38.78 10.19 38.78 10.19 5.3 10.81 5.3 10.81 38.78 14.35 38.78 14.35 45.27 24.13 45.27 24.13 54.26 41.04 54.26 41.04 201.16 0 201.16 0 54.26 5.82 54.26" />
    <polygon class="cls-1"
        points="264.56 50.29 264.56 41.05 262.48 41.05 262.48 34.39 261.44 34.39 261.44 0 260.99 0 260.99 34.39 258.46 34.39 258.46 41.05 251.47 41.05 251.47 50.29 239.36 50.29 239.36 201.16 268.73 201.16 268.73 50.29 264.56 50.29" />
    <polygon class="cls-1"
        points="387.83 114.11 376.1 101.98 374.9 101.98 374.9 96.27 371.21 96.27 371.21 101.98 355.27 101.98 343.19 114.11 346.38 114.11 346.38 201.16 384.97 201.16 384.97 114.11 387.83 114.11" />
    <polygon class="cls-2"
        points="246.28 154.91 235.31 150.55 224.29 154.82 213.49 158.97 213.3 158.97 213.3 201.16 256.39 201.16 256.39 158.97 246.28 154.91" />
    <polygon class="cls-1"
        points="216.56 121.1 197.56 113.56 178.5 120.95 159.78 128.12 159.47 128.12 159.47 201.16 234.06 201.16 234.06 128.12 216.56 121.1" />
    <polygon class="cls-3"
        points="313.28 88.22 313.28 83.54 303.39 83.54 303.39 81.2 292.98 81.2 292.98 83.54 290.38 83.54 290.38 88.22 286.22 88.22 286.22 201.16 322.65 201.16 322.65 88.22 313.28 88.22" />
    <rect class="cls-4" x="289.8" y="92.64" width="2.26" height="4.01" />
    <rect class="cls-4" x="292.69" y="92.67" width="1.19" height="4.01" />
    <rect class="cls-4" x="295.26" y="92.67" width="3.32" height="4.01" />
    <rect class="cls-4" x="306.1" y="92.82" width="2.26" height="4.01" />
    <rect class="cls-4" x="308.98" y="92.85" width="1.19" height="4.01" />
    <rect class="cls-4" x="311.55" y="92.85" width="3.32" height="4.01" />
    <rect class="cls-4" x="291.69" y="104.83" width="2.25" height="4.01" />
    <rect class="cls-4" x="294.58" y="104.86" width="1.19" height="4.01" />
    <rect class="cls-4" x="297.14" y="104.86" width="3.32" height="4.01" />
    <rect class="cls-4" x="307.99" y="105.01" width="2.26" height="4.01" />
    <rect class="cls-4" x="310.87" y="105.04" width="1.19" height="4.01" />
    <rect class="cls-4" x="312.97" y="105" width="1.19" height="4.01" />
    <rect class="cls-4" x="302.88" y="105" width="3.32" height="4.01" />
    <rect class="cls-4" x="317.46" y="93.31" width="3.32" height="4.01" />
    <rect class="cls-4" x="309.57" y="99.87" width="3.32" height="2.74" />
    <rect class="cls-4" x="299.83" y="99.56" width="1.83" height="3.25" />
    <rect class="cls-4" x="302.17" y="99.58" width="0.97" height="3.25" />
    <rect class="cls-4" x="304.25" y="99.58" width="2.69" height="3.25" />
    <polygon class="cls-5"
        points="520.4 60.1 520.79 49.87 546.04 49.61 554.55 60.1 571.11 60.1 571.11 201.16 514.37 201.16 514.37 60.1 520.4 60.1" />
    <rect class="cls-4" x="520.56" y="68.85" width="2.26" height="5.53" />
    <rect class="cls-4" x="523.45" y="68.89" width="1.19" height="5.53" />
    <rect class="cls-4" x="526.01" y="68.89" width="3.32" height="5.53" />
    <rect class="cls-4" x="536.86" y="69.1" width="2.26" height="5.53" />
    <rect class="cls-4" x="539.74" y="69.14" width="1.19" height="5.53" />
    <rect class="cls-4" x="542.31" y="69.14" width="3.32" height="5.53" />
    <rect class="cls-4" x="522.45" y="85.67" width="2.25" height="5.53" />
    <rect class="cls-4" x="525.33" y="85.71" width="1.19" height="5.53" />
    <rect class="cls-4" x="527.9" y="85.71" width="3.32" height="5.53" />
    <rect class="cls-4" x="538.75" y="85.92" width="2.26" height="5.54" />
    <rect class="cls-4" x="541.63" y="85.97" width="1.19" height="5.53" />
    <rect class="cls-4" x="543.73" y="85.91" width="1.19" height="5.53" />
    <rect class="cls-4" x="533.64" y="85.91" width="3.32" height="5.54" />
    <rect class="cls-4" x="548.22" y="69.77" width="3.32" height="5.53" />
    <rect class="cls-4" x="540.32" y="78.83" width="3.32" height="3.78" />
    <rect class="cls-4" x="530.59" y="78.4" width="1.83" height="4.49" />
    <rect class="cls-4" x="532.93" y="78.43" width="0.97" height="4.49" />
    <rect class="cls-4" x="535.01" y="78.43" width="2.7" height="4.49" />
    <rect class="cls-4" x="534.09" y="95.91" width="2.25" height="5.53" />
    <rect class="cls-4" x="536.98" y="95.96" width="1.19" height="5.53" />
    <rect class="cls-4" x="539.55" y="95.96" width="3.32" height="5.53" />
    <rect class="cls-4" x="550.39" y="96.16" width="2.26" height="5.53" />
    <rect class="cls-4" x="553.27" y="96.21" width="1.19" height="5.53" />
    <rect class="cls-4" x="555.84" y="96.21" width="3.32" height="5.53" />
    <rect class="cls-4" x="535.99" y="112.74" width="2.25" height="5.53" />
    <rect class="cls-4" x="538.87" y="112.78" width="1.19" height="5.53" />
    <rect class="cls-4" x="541.44" y="112.78" width="3.32" height="5.53" />
    <rect class="cls-4" x="552.28" y="112.99" width="2.26" height="5.54" />
    <rect class="cls-4" x="555.16" y="113.03" width="1.19" height="5.53" />
    <rect class="cls-4" x="547.17" y="112.98" width="3.32" height="5.54" />
    <rect class="cls-4" x="545.81" y="77.93" width="1.19" height="5.53" />
    <rect class="cls-4" x="552.47" y="88.18" width="2.26" height="5.53" />
    <rect class="cls-4" x="555.35" y="88.22" width="1.19" height="5.53" />
    <rect class="cls-4" x="552.47" y="86.44" width="2.26" height="5.53" />
    <rect class="cls-4" x="555.35" y="86.49" width="1.19" height="5.53" />
    <rect class="cls-4" x="553.86" y="105.9" width="3.32" height="3.78" />
    <rect class="cls-4" x="544.12" y="105.46" width="1.83" height="4.49" />
    <rect class="cls-4" x="546.46" y="105.5" width="0.97" height="4.49" />
    <rect class="cls-4" x="548.54" y="105.5" width="2.69" height="4.49" />
    <polygon class="cls-1"
        points="434.77 74.96 434.42 65.8 411.84 65.57 404.22 74.96 389.41 74.96 389.41 201.16 440.17 201.16 440.17 74.96 434.77 74.96" />
    <rect class="cls-4" x="392.86" y="82.03" width="2.79" height="6.85" />
    <rect class="cls-4" x="396.43" y="82.08" width="1.47" height="6.85" />
    <rect class="cls-4" x="399.61" y="82.08" width="4.12" height="6.85" />
    <rect class="cls-4" x="413.04" y="82.34" width="2.79" height="6.85" />
    <rect class="cls-4" x="416.61" y="82.39" width="1.48" height="6.85" />
    <rect class="cls-4" x="419.79" y="82.39" width="4.12" height="6.85" />
    <rect class="cls-4" x="394.1" y="105" width="2.3" height="6.85" />
    <rect class="cls-4" x="397.04" y="105.06" width="1.21" height="6.85" />
    <rect class="cls-4" x="399.65" y="105.06" width="3.38" height="6.85" />
    <rect class="cls-4" x="410.7" y="105.31" width="2.3" height="6.85" />
    <rect class="cls-4" x="413.63" y="105.37" width="1.21" height="6.85" />
    <rect class="cls-4" x="426.44" y="104.98" width="3.39" height="6.85" />
    <rect class="cls-4" x="401.55" y="93.21" width="2.79" height="6.85" />
    <rect class="cls-4" x="405.12" y="93.26" width="1.48" height="6.85" />
    <rect class="cls-4" x="408.3" y="93.26" width="4.11" height="6.85" />
    <rect class="cls-4" x="421.73" y="93.52" width="2.79" height="6.85" />
    <rect class="cls-4" x="425.3" y="93.57" width="1.47" height="6.85" />
    <rect class="cls-4" x="428.48" y="93.57" width="4.11" height="6.85" />
    <rect class="cls-4" x="396.12" y="116.72" width="2.79" height="6.85" />
    <rect class="cls-4" x="399.69" y="116.78" width="1.48" height="6.85" />
    <rect class="cls-4" x="402.87" y="116.78" width="4.12" height="6.85" />
    <rect class="cls-4" x="416.3" y="117.03" width="2.79" height="6.85" />
    <rect class="cls-4" x="419.87" y="117.09" width="1.48" height="6.85" />
    <rect class="cls-4" x="431.9" y="117.09" width="4.12" height="6.85" />
    <rect class="cls-4" x="397.36" y="139.7" width="2.3" height="6.85" />
    <rect class="cls-4" x="400.3" y="139.75" width="1.21" height="6.85" />
    <rect class="cls-4" x="402.91" y="139.75" width="3.38" height="6.85" />
    <rect class="cls-4" x="413.96" y="140.01" width="2.3" height="6.85" />
    <rect class="cls-4" x="416.89" y="140.06" width="1.22" height="6.85" />
    <rect class="cls-4" x="419.69" y="140.14" width="3.39" height="6.85" />
    <rect class="cls-4" x="404.81" y="127.9" width="2.79" height="6.85" />
    <rect class="cls-4" x="408.38" y="127.95" width="1.47" height="6.85" />
    <rect class="cls-4" x="411.56" y="127.95" width="4.12" height="6.85" />
    <rect class="cls-4" x="424.99" y="128.21" width="2.79" height="6.85" />
    <rect class="cls-4" x="428.56" y="128.26" width="1.48" height="6.85" />
    <rect class="cls-4" x="431.74" y="128.26" width="4.12" height="6.85" />
    <polygon class="cls-1"
        points="524.27 74.49 524.27 66.73 517.75 66.73 517.75 61.14 514.49 61.14 514.49 32.27 513.09 32.27 513.09 61.14 505.18 61.14 505.18 66.73 483.29 66.73 483.29 74.49 445.41 74.49 445.41 201.16 537.31 201.16 537.31 74.49 524.27 74.49" />
    <rect class="cls-4" x="450.57" y="81.56" width="2.8" height="5.33" />
    <rect class="cls-4" x="454.14" y="81.61" width="1.48" height="5.34" />
    <rect class="cls-4" x="457.32" y="81.61" width="4.12" height="5.34" />
    <rect class="cls-4" x="470.75" y="81.81" width="2.8" height="5.33" />
    <rect class="cls-4" x="474.32" y="81.85" width="1.48" height="5.33" />
    <rect class="cls-4" x="477.5" y="81.85" width="4.12" height="5.33" />
    <rect class="cls-4" x="451.81" y="99.45" width="2.3" height="5.33" />
    <rect class="cls-4" x="454.75" y="99.49" width="1.21" height="5.33" />
    <rect class="cls-4" x="457.37" y="99.49" width="3.38" height="5.33" />
    <rect class="cls-4" x="468.41" y="99.69" width="2.3" height="5.33" />
    <rect class="cls-4" x="471.35" y="99.73" width="1.21" height="5.33" />
    <rect class="cls-4" x="484.15" y="99.43" width="3.39" height="5.33" />
    <rect class="cls-4" x="459.26" y="90.26" width="2.79" height="5.33" />
    <rect class="cls-4" x="462.84" y="90.31" width="1.48" height="5.33" />
    <rect class="cls-4" x="466.02" y="90.31" width="4.12" height="5.33" />
    <rect class="cls-4" x="479.44" y="90.5" width="2.79" height="5.33" />
    <rect class="cls-4" x="483.02" y="90.55" width="1.47" height="5.33" />
    <rect class="cls-4" x="486.2" y="90.55" width="4.12" height="5.33" />
    <rect class="cls-4" x="453.83" y="108.57" width="2.79" height="5.33" />
    <rect class="cls-4" x="457.4" y="108.61" width="1.48" height="5.33" />
    <rect class="cls-4" x="460.58" y="108.61" width="4.12" height="5.33" />
    <rect class="cls-4" x="474.01" y="108.81" width="2.79" height="5.33" />
    <rect class="cls-4" x="477.58" y="108.85" width="1.48" height="5.33" />
    <rect class="cls-4" x="489.61" y="108.85" width="4.12" height="5.33" />
    <rect class="cls-4" x="455.07" y="126.45" width="2.3" height="5.33" />
    <rect class="cls-4" x="458.01" y="126.49" width="1.21" height="5.33" />
    <rect class="cls-4" x="460.63" y="126.49" width="3.38" height="5.33" />
    <rect class="cls-4" x="471.67" y="126.69" width="2.3" height="5.33" />
    <rect class="cls-4" x="474.61" y="126.73" width="1.21" height="5.34" />
    <rect class="cls-4" x="477.4" y="126.79" width="3.38" height="5.33" />
    <rect class="cls-4" x="462.52" y="117.27" width="2.8" height="5.34" />
    <rect class="cls-4" x="466.09" y="117.31" width="1.48" height="5.34" />
    <rect class="cls-4" x="469.28" y="117.31" width="4.12" height="5.34" />
    <rect class="cls-4" x="482.7" y="117.51" width="2.8" height="5.34" />
    <rect class="cls-4" x="486.27" y="117.55" width="1.48" height="5.33" />
    <rect class="cls-4" x="489.46" y="117.55" width="4.12" height="5.33" />
    <rect class="cls-4" x="491.55" y="81.56" width="2.79" height="5.33" />
    <rect class="cls-4" x="495.12" y="81.61" width="1.48" height="5.34" />
    <rect class="cls-4" x="498.31" y="81.61" width="4.11" height="5.34" />
    <rect class="cls-4" x="511.73" y="81.81" width="2.79" height="5.33" />
    <rect class="cls-4" x="515.3" y="81.85" width="1.47" height="5.33" />
    <rect class="cls-4" x="518.48" y="81.85" width="4.12" height="5.33" />
    <rect class="cls-4" x="492.79" y="99.45" width="2.3" height="5.33" />
    <rect class="cls-4" x="495.73" y="99.49" width="1.21" height="5.33" />
    <rect class="cls-4" x="498.35" y="99.49" width="3.38" height="5.33" />
    <rect class="cls-4" x="509.39" y="99.69" width="2.3" height="5.33" />
    <rect class="cls-4" x="512.33" y="99.73" width="1.21" height="5.33" />
    <rect class="cls-4" x="525.14" y="99.43" width="3.38" height="5.33" />
    <rect class="cls-4" x="500.24" y="90.26" width="2.8" height="5.33" />
    <rect class="cls-4" x="503.82" y="90.31" width="1.48" height="5.33" />
    <rect class="cls-4" x="507" y="90.31" width="4.11" height="5.33" />
    <rect class="cls-4" x="520.43" y="90.5" width="2.79" height="5.33" />
    <rect class="cls-4" x="524" y="90.55" width="1.47" height="5.33" />
    <rect class="cls-4" x="527.18" y="90.55" width="4.12" height="5.33" />
    <rect class="cls-4" x="494.81" y="108.57" width="2.79" height="5.33" />
    <rect class="cls-4" x="498.38" y="108.61" width="1.47" height="5.33" />
    <rect class="cls-4" x="501.56" y="108.61" width="4.12" height="5.33" />
    <rect class="cls-4" x="514.99" y="108.81" width="2.79" height="5.33" />
    <rect class="cls-4" x="518.56" y="108.85" width="1.48" height="5.33" />
    <rect class="cls-4" x="507.77" y="108.43" width="4.12" height="5.33" />
    <rect class="cls-4" x="496.05" y="126.45" width="2.3" height="5.33" />
    <rect class="cls-4" x="498.99" y="126.49" width="1.21" height="5.33" />
    <rect class="cls-4" x="501.61" y="126.49" width="3.38" height="5.33" />
    <rect class="cls-4" x="512.65" y="126.69" width="2.3" height="5.33" />
    <rect class="cls-4" x="515.59" y="126.73" width="1.21" height="5.34" />
    <rect class="cls-4" x="518.38" y="126.79" width="3.39" height="5.33" />
    <rect class="cls-4" x="503.51" y="117.27" width="2.79" height="5.34" />
    <rect class="cls-4" x="507.08" y="117.31" width="1.47" height="5.34" />
    <rect class="cls-4" x="510.26" y="117.31" width="4.12" height="5.34" />
    <rect class="cls-4" x="523.69" y="117.51" width="2.79" height="5.34" />
    <rect class="cls-4" x="527.26" y="117.55" width="1.47" height="5.33" />
    <rect class="cls-4" x="457.17" y="117.37" width="4.11" height="5.33" />
    <polygon
        points="227.33 66.42 227.33 60.83 213.51 60.83 213.51 58.04 198.96 58.04 198.96 60.83 195.33 60.83 195.33 66.42 189.51 66.42 189.51 201.16 240.42 201.16 240.42 66.42 227.33 66.42" />
    <rect class="cls-4" x="195.13" y="74.58" width="2.79" height="5.33" />
    <rect class="cls-4" x="198.7" y="74.62" width="1.47" height="5.33" />
    <rect class="cls-4" x="201.89" y="74.62" width="4.12" height="5.33" />
    <rect class="cls-4" x="215.31" y="74.82" width="2.79" height="5.33" />
    <rect class="cls-4" x="218.88" y="74.86" width="1.47" height="5.33" />
    <rect class="cls-4" x="222.07" y="74.86" width="4.11" height="5.33" />
    <rect class="cls-4" x="196.37" y="92.46" width="2.3" height="5.34" />
    <rect class="cls-4" x="199.31" y="92.5" width="1.21" height="5.34" />
    <rect class="cls-4" x="201.93" y="92.5" width="3.38" height="5.34" />
    <rect class="cls-4" x="212.97" y="92.7" width="2.3" height="5.33" />
    <rect class="cls-4" x="215.91" y="92.74" width="1.21" height="5.33" />
    <rect class="cls-4" x="203.83" y="83.27" width="2.8" height="5.33" />
    <rect class="cls-4" x="207.4" y="83.32" width="1.48" height="5.33" />
    <rect class="cls-4" x="210.58" y="83.32" width="4.11" height="5.33" />
    <rect class="cls-4" x="198.39" y="101.58" width="2.79" height="5.33" />
    <rect class="cls-4" x="201.96" y="101.62" width="1.47" height="5.33" />
    <rect class="cls-4" x="205.15" y="101.62" width="4.12" height="5.33" />
    <rect class="cls-4" x="218.57" y="101.82" width="2.8" height="5.34" />
    <rect class="cls-4" x="222.14" y="101.86" width="1.48" height="5.34" />
    <rect class="cls-4" x="199.64" y="119.46" width="2.3" height="5.34" />
    <rect class="cls-4" x="202.57" y="119.51" width="1.21" height="5.33" />
    <rect class="cls-4" x="205.19" y="119.51" width="3.38" height="5.33" />
    <rect class="cls-4" x="216.23" y="119.7" width="2.3" height="5.33" />
    <rect class="cls-4" x="219.17" y="119.75" width="1.21" height="5.33" />
    <rect class="cls-4" x="221.96" y="119.81" width="3.38" height="5.33" />
    <rect class="cls-4" x="207.09" y="110.28" width="2.79" height="5.33" />
    <rect class="cls-4" x="210.66" y="110.32" width="1.47" height="5.33" />
    <rect class="cls-4" x="213.84" y="110.32" width="4.12" height="5.33" />
    <rect class="cls-4" x="222.51" y="129.57" width="2.3" height="5.34" />
    <rect class="cls-4" x="201.73" y="110.38" width="4.12" height="5.33" />
    <polygon class="cls-1"
        points="367.22 127.38 349.71 120.43 332.14 127.24 314.9 133.85 314.61 133.85 314.61 201.16 383.35 201.16 383.35 133.85 367.22 127.38" />
    <rect class="cls-4" x="319.86" y="137.44" width="2.79" height="6.85" />
    <rect class="cls-4" x="323.43" y="137.49" width="1.48" height="6.85" />
    <rect class="cls-4" x="326.62" y="137.49" width="4.11" height="6.85" />
    <rect class="cls-4" x="340.04" y="137.75" width="2.79" height="6.85" />
    <rect class="cls-4" x="343.61" y="137.8" width="1.47" height="6.85" />
    <rect class="cls-4" x="346.79" y="137.8" width="4.11" height="6.85" />
    <rect class="cls-4" x="345.24" y="157.69" width="2.8" height="6.85" />
    <rect class="cls-4" x="348.81" y="157.75" width="1.48" height="6.85" />
    <rect class="cls-4" x="351.99" y="157.75" width="4.12" height="6.85" />
    <rect class="cls-4" x="365.42" y="158" width="2.79" height="6.85" />
    <rect class="cls-4" x="368.99" y="158.06" width="1.48" height="6.85" />
    <rect class="cls-4" x="371.59" y="157.99" width="1.48" height="6.85" />
    <rect class="cls-4" x="359.09" y="157.99" width="4.12" height="6.85" />
    <rect class="cls-4" x="368.72" y="137.82" width="4.12" height="6.85" />
    <rect class="cls-4" x="356.61" y="149.46" width="4.11" height="4.68" />
    <rect class="cls-4" x="332.28" y="149.27" width="2.26" height="5.56" />
    <rect class="cls-4" x="335.17" y="149.31" width="1.2" height="5.56" />
    <rect class="cls-4" x="337.76" y="149.31" width="3.34" height="5.56" />
    <polygon class="cls-1"
        points="298.6 120.64 287.75 109.42 286.64 109.42 286.64 104.14 283.23 104.14 283.23 109.42 268.48 109.42 257.31 120.64 260.25 120.64 260.25 201.16 295.96 201.16 295.96 120.64 298.6 120.64" />
    <rect class="cls-4" x="262.74" y="120.36" width="2.26" height="5.53" />
    <rect class="cls-4" x="265.62" y="120.41" width="1.19" height="5.53" />
    <rect class="cls-4" x="268.19" y="120.41" width="3.32" height="5.53" />
    <rect class="cls-4" x="279.03" y="120.61" width="2.26" height="5.53" />
    <rect class="cls-4" x="281.91" y="120.66" width="1.19" height="5.53" />
    <rect class="cls-4" x="284.49" y="120.66" width="3.32" height="5.53" />
    <rect class="cls-4" x="264.63" y="137.19" width="2.25" height="5.53" />
    <rect class="cls-4" x="267.51" y="137.23" width="1.19" height="5.53" />
    <rect class="cls-4" x="270.08" y="137.23" width="3.32" height="5.53" />
    <rect class="cls-4" x="280.92" y="137.44" width="2.26" height="5.54" />
    <rect class="cls-4" x="283.8" y="137.48" width="1.19" height="5.53" />
    <rect class="cls-4" x="285.9" y="137.43" width="1.19" height="5.53" />
    <rect class="cls-4" x="275.81" y="137.43" width="3.32" height="5.53" />
    <rect class="cls-4" x="290.39" y="121.29" width="3.32" height="5.53" />
    <rect class="cls-4" x="282.5" y="130.35" width="3.32" height="3.78" />
    <rect class="cls-4" x="272.76" y="129.91" width="1.83" height="4.49" />
    <rect class="cls-4" x="275.1" y="129.95" width="0.97" height="4.49" />
    <rect class="cls-4" x="277.18" y="129.95" width="2.69" height="4.49" />
    <polygon class="cls-3"
        points="456.46 151.8 449.81 144.93 449.13 144.93 449.13 141.69 447.04 141.69 447.04 144.93 438 144.93 431.15 151.8 432.96 151.8 432.96 201.16 454.84 201.16 454.84 151.8 456.46 151.8" />
    <polygon class="cls-3"
        points="369.65 133.31 369.84 128.39 381.99 128.26 386.08 133.31 394.04 133.31 394.04 201.16 366.75 201.16 366.75 133.31 369.65 133.31" />
    <polygon class="cls-3"
        points="131.94 52.17 115.89 31.09 114.22 31.06 114.4 21.29 109.22 21.19 109.04 30.96 86.68 30.54 69.36 50.99 73.83 51.07 71.01 200.14 125.13 201.16 127.94 52.09 131.94 52.17" />
    <polygon class="cls-1"
        points="70.67 94.65 70.38 86.92 51.32 86.72 44.89 94.65 32.39 94.65 32.39 201.16 75.23 201.16 75.23 94.65 70.67 94.65" />
    <rect class="cls-4" x="35.3" y="100.61" width="2.36" height="5.78" />
    <rect class="cls-4" x="38.31" y="100.66" width="1.24" height="5.78" />
    <rect class="cls-4" x="41" y="100.66" width="3.47" height="5.78" />
    <rect class="cls-4" x="52.33" y="100.88" width="2.36" height="5.78" />
    <rect class="cls-4" x="55.34" y="100.92" width="1.24" height="5.78" />
    <rect class="cls-4" x="58.03" y="100.92" width="3.47" height="5.78" />
    <rect class="cls-4" x="36.35" y="120" width="1.94" height="5.78" />
    <rect class="cls-4" x="38.82" y="120.05" width="1.02" height="5.78" />
    <rect class="cls-4" x="41.03" y="120.05" width="2.86" height="5.78" />
    <rect class="cls-4" x="50.35" y="120.27" width="1.94" height="5.78" />
    <rect class="cls-4" x="52.83" y="120.31" width="1.02" height="5.78" />
    <rect class="cls-4" x="63.64" y="119.98" width="2.86" height="5.78" />
    <rect class="cls-4" x="42.64" y="110.05" width="2.36" height="5.78" />
    <rect class="cls-4" x="45.65" y="110.09" width="1.25" height="5.78" />
    <rect class="cls-4" x="48.33" y="110.09" width="3.47" height="5.78" />
    <rect class="cls-4" x="59.67" y="110.31" width="2.36" height="5.78" />
    <rect class="cls-4" x="62.68" y="110.36" width="1.24" height="5.78" />
    <rect class="cls-4" x="65.37" y="110.36" width="3.47" height="5.78" />
    <rect class="cls-4" x="38.05" y="129.9" width="2.36" height="5.78" />
    <rect class="cls-4" x="41.06" y="129.94" width="1.25" height="5.78" />
    <rect class="cls-4" x="43.75" y="129.94" width="3.47" height="5.78" />
    <rect class="cls-4" x="55.08" y="130.16" width="2.36" height="5.78" />
    <rect class="cls-4" x="58.09" y="130.2" width="1.24" height="5.78" />
    <rect class="cls-4" x="68.25" y="130.2" width="3.47" height="5.78" />
    <rect class="cls-4" x="39.1" y="149.29" width="1.94" height="5.78" />
    <rect class="cls-4" x="41.58" y="149.33" width="1.02" height="5.78" />
    <rect class="cls-4" x="43.78" y="149.33" width="2.86" height="5.78" />
    <rect class="cls-4" x="53.11" y="149.55" width="1.94" height="5.78" />
    <rect class="cls-4" x="55.58" y="149.59" width="1.03" height="5.78" />
    <rect class="cls-4" x="57.94" y="149.66" width="2.86" height="5.78" />
    <rect class="cls-4" x="45.39" y="139.33" width="2.36" height="5.78" />
    <rect class="cls-4" x="48.4" y="139.37" width="1.25" height="5.78" />
    <rect class="cls-4" x="51.09" y="139.37" width="3.47" height="5.78" />
    <rect class="cls-4" x="62.42" y="139.59" width="2.36" height="5.78" />
    <rect class="cls-4" x="65.43" y="139.64" width="1.24" height="5.78" />
    <rect class="cls-4" x="68.12" y="139.64" width="3.47" height="5.78" />
    <polygon class="cls-1"
        points="591.35 56.23 591.35 47.35 589.35 47.35 589.35 40.96 588.35 40.96 588.35 7.92 587.92 7.92 587.92 40.96 585.49 40.96 585.49 47.35 578.77 47.35 578.77 56.23 567.14 56.23 567.14 201.16 595.35 201.16 595.35 56.23 591.35 56.23" />
    <polygon class="cls-1"
        points="160.39 79.48 160.39 72.02 154.13 72.02 154.13 66.66 151 66.66 151 38.92 149.65 38.92 149.65 66.66 142.05 66.66 142.05 72.02 121.02 72.02 121.02 79.48 84.64 79.48 84.64 201.16 172.92 201.16 172.92 79.48 160.39 79.48" />
    <rect class="cls-4" x="160.13" y="94.9" width="1.42" height="5.12" />
    <rect class="cls-4" x="138.58" y="112.25" width="3.95" height="5.12" />
    <rect class="cls-4" x="149.77" y="94.8" width="3.38" height="5.34" />
    <rect class="cls-4" x="145.06" y="94.8" width="2.79" height="5.34" />
    <rect class="cls-4" x="148.63" y="94.8" width="1.47" height="5.33" />
    <rect class="cls-4" x="151.81" y="94.8" width="4.12" height="5.33" />
    <rect class="cls-4" x="155.22" y="94.8" width="4.12" height="5.34" />
    <rect class="cls-4" x="148.31" y="94.8" width="2.79" height="5.34" />
    <rect class="cls-4" x="151.89" y="94.8" width="1.48" height="5.33" />
    <rect class="cls-4" x="155.07" y="94.8" width="4.12" height="5.33" />
    <rect class="cls-4" x="146.49" y="94.8" width="1.21" height="5.33" />
    <rect class="cls-4" x="149.11" y="94.8" width="3.38" height="5.33" />
    <rect class="cls-4" x="151.01" y="94.8" width="2.79" height="5.33" />
    <rect class="cls-4" x="154.58" y="94.8" width="1.47" height="5.33" />
</svg>